<?xml version="1.0" standalone="no"?><!DOCTYPE svg PUBLIC "-//W3C//DTD SVG 1.1//EN" "http://www.w3.org/Graphics/SVG/1.1/DTD/svg11.dtd"><svg t="1730217246547" class="icon" viewBox="0 0 1024 1024" version="1.1" xmlns="http://www.w3.org/2000/svg" p-id="1680" xmlns:xlink="http://www.w3.org/1999/xlink" width="32" height="32"><path d="M146.21460317 648.57396825h-21.91238095c-64.61968254 0-117.18095238-54.5015873-117.18095238-121.49841269s52.57142857-121.4984127 117.18095238-121.4984127h21.91238095v242.99682539z m-43.83492063-194.08253968c-29.7752381 9.68126984-51.43365079 38.56253968-51.43365079 72.58412699s21.6584127 62.90285714 51.43365079 72.58412698v-145.16825397z" p-id="1681"></path><path d="M151.29396825 653.65333333h-26.99174603c-67.41333333 0-122.26031746-56.77714286-122.26031746-126.57777777S56.88888889 400.49777778 124.30222222 400.49777778h26.99174603v253.15555555z m-26.99174603-242.99682539c-61.81587302 0-112.1015873 52.22603175-112.1015873 116.41904762s50.28571429 116.41904762 112.1015873 116.41904761h16.83301588v-232.83809523h-16.83301588z m-16.83301587 195.99238095l-6.65396825-2.16380952c-32.86349206-10.68698413-54.9384127-41.8031746-54.9384127-77.40952381s22.07492063-66.72253968 54.9384127-77.40952381l6.65396825-2.16380953v159.14666667z m-10.15873016-144.77206349c-24.94984127 11.12380952-41.27492063 36.48-41.27492063 65.19873016s16.31492063 54.07492063 41.27492063 65.19873015V461.8768254zM896.66031746 647.54793651h-21.91238095v-242.9968254h21.91238095c64.60952381 0 117.18095238 54.5015873 117.18095238 121.4984127s-52.57142857 121.4984127-117.18095238 121.4984127z m21.91238095-194.08253968v145.16825396c29.7752381-9.68126984 51.43365079-38.56253968 51.4336508-72.58412698s-21.6584127-62.90285714-51.4336508-72.58412698z" p-id="1682"></path><path d="M896.66031746 652.62730159h-27.00190476v-253.15555556h27.00190476c67.41333333 0 122.26031746 56.77714286 122.26031746 126.57777778s-54.84698413 126.57777778-122.26031746 126.57777778z m-16.8431746-10.15873016h16.8431746c61.81587302 0 112.1015873-52.22603175 112.1015873-116.41904762s-50.28571429-116.41904762-112.1015873-116.41904762h-16.8431746v232.83809524z m33.67619047-36.84571429V446.47619048l6.65396826 2.16380952c32.86349206 10.68698413 54.9384127 41.8031746 54.9384127 77.40952381s-22.07492063 66.72253968-54.9384127 77.40952381l-6.65396826 2.16380952z m10.15873016-144.77206349v130.39746032c24.94984127-11.12380952 41.27492063-36.48 41.27492064-65.19873016s-16.31492063-54.07492063-41.27492064-65.19873016z" p-id="1683"></path><path d="M921.46793651 454.87746032h-43.83492064c0-209.51365079-164.39873016-379.97714286-366.4863492-379.97714286s-366.47619048 170.46349206-366.47619048 379.97714286h-43.83492063c0-57.41714286 10.84952381-113.13777778 32.25396825-165.59746032 20.66285714-50.6615873 50.24507937-96.15238095 87.92380952-135.22285714 37.67873016-39.06031746 81.55428571-69.72952381 130.41777778-91.16444445 50.60063492-22.18666667 104.34031746-33.44253968 159.71555556-33.44253968s109.12507937 11.25587302 159.71555555 33.44253968c48.86349206 21.4247619 92.73904762 52.10412698 130.41777778 91.16444445 37.67873016 39.06031746 67.26095238 84.56126984 87.92380952 135.22285714 21.40444444 52.45968254 32.25396825 108.18031746 32.25396826 165.59746032z" p-id="1684"></path><path d="M926.54730159 459.9568254h-53.9936508v-5.07936508c0-206.72-162.1231746-374.89777778-361.40698412-374.89777778S149.74984127 248.16761905 149.74984127 454.87746032v5.07936508h-53.99365079v-5.07936508c0-58.08761905 10.9815873-114.44825397 32.62984127-167.51746032 20.9168254-51.26095238 50.84444444-97.29015873 88.97015873-136.82793651 38.13587302-39.53777778 82.56-70.59301587 132.03301587-92.29206349 51.25079365-22.47111111 105.67111111-33.86920635 161.75746032-33.86920635s110.5168254 11.39809524 161.75746031 33.86920635c49.47301587 21.69904762 93.89714286 52.74412698 132.03301588 92.29206349 38.12571429 39.52761905 68.06349206 85.56698413 88.97015873 136.82793651 21.64825397 53.06920635 32.62984127 109.44 32.62984127 167.51746032v5.07936508z m-43.86539683-10.15873016h33.67619048c-0.61968254-54.96888889-11.32698413-108.30222222-31.84761905-158.59809524-20.41904762-50.06222222-49.65587302-95.01460317-86.87746032-133.60761905-37.21142857-38.58285714-80.54857143-68.87619048-128.80253968-90.03682539C618.88 45.65333333 565.83111111 34.53968254 511.14666667 34.53968254S403.42349206 45.6431746 353.46285714 67.55555556c-48.25396825 21.16063492-91.59111111 51.45396825-128.80253968 90.03682539-37.2215873 38.59301587-66.4584127 83.54539683-86.87746032 133.60761905-20.52063492 50.30603175-31.22793651 103.63936508-31.84761904 158.59809524h33.67619047c2.63111111-209.98095238 168.28952381-379.97714286 371.52507937-379.97714286s368.89396825 169.98603175 371.52507936 379.97714286zM585.14285714 956.60698413v-45.45015873c159.87809524 0 289.94031746-134.85714286 289.94031746-300.61714286h43.83492064c0 92.43428571-34.72253968 179.34222222-97.75746032 244.70349206-63.04507937 65.36126984-146.8647619 101.36380952-236.01777778 101.36380953z" p-id="1685"></path><path d="M585.14285714 961.68634921h-5.07936508v-55.60888889h5.07936508c157.07428571 0 284.86095238-132.5815873 284.86095238-295.53777778v-5.07936508h53.9936508v5.07936508c0 93.75492063-35.22031746 181.91238095-99.17968254 248.22857143C760.80761905 925.1352381 675.69777778 961.68634921 585.14285714 961.68634921z m5.07936508-45.49079365v35.29142857c85.87174603-1.34095238 166.4-36.64253968 227.28126984-99.76888889 60.96253968-63.20761905 95.0552381-146.88507937 96.30476191-236.09904762h-33.67619048c-2.60063492 164.46984127-131.18984127 297.78285714-289.89968254 300.57650794z" p-id="1686"></path><path d="M510.20190476 519.75111111h-99.81968254l-24.56380952 84.89650794H339.80952381l95.14666667-297.55936508h52.25650793l95.14666667 297.55936508h-47.95936508l-24.17777778-84.89650794z m-10.92063492-36.79492063l-11.30666667-40.02539683c-9.75238095-32.34539683-18.32634921-65.49333333-27.29650793-99.04761905h-1.56444445c-8.18793651 33.96063492-17.15809524 66.71238095-26.51428571 99.04761905l-11.70285714 40.02539683h78.37460317z" p-id="1687"></path><path d="M589.29777778 609.73714286h-58.75809524l-24.17777778-84.89650794h-92.17015873l-24.56380952 84.89650794h-56.78730159L431.23809524 302.01904762h59.67238095l98.39746032 307.71809524z m-51.08825397-10.15873016h37.17079365L483.48444444 312.17777778H438.65396825l-91.89587301 287.40063492h35.24063492l24.56380952-84.89650794h107.47936508l24.17777778 84.89650794z m-32.21333333-111.53269841h-91.86539683l13.60253968-46.52698413c10.74793651-37.15047619 19.15936508-68.56126984 26.45333334-98.81396826l0.93460317-3.89079365h9.45777778l1.00571428 3.76888889c1.51365079 5.66857143 3.01714286 11.32698413 4.52063493 16.9752381 7.53777778 28.35301587 14.65904762 55.12126984 22.73523809 81.93015873l13.15555556 46.56761905z m-78.3136508-10.15873016h64.88380953l-9.47809524-33.56444445c-8.10666667-26.88-15.57333333-54.97904762-22.79619048-82.16380952-0.07111111-0.28444444-0.15238095-0.55873016-0.22349206-0.8431746-6.38984127 25.48825397-13.69396825 52.30730159-22.58285714 83.03746031L427.68253968 477.88698413z" p-id="1688"></path><path d="M620.16 307.0984127H665.3968254v297.55936508h-45.2368254V307.0984127z" p-id="1689"></path><path d="M670.47619048 609.73714286h-55.39555556V302.01904762H670.47619048v307.71809524z m-45.2368254-10.15873016H660.31746032V312.17777778h-35.07809524v287.40063492z" p-id="1690"></path><path d="M510.98412698 779.17460317c-84.38857143 0-163.72825397-32.86349206-223.40063492-92.53587301S195.04761905 547.62666667 195.04761905 463.23809524s32.86349206-163.72825397 92.53587301-223.40063492S426.59555556 147.3015873 510.98412698 147.3015873s163.72825397 32.86349206 223.40063492 92.53587302S826.92063492 378.84952381 826.92063492 463.23809524s-32.86349206 163.72825397-92.53587302 223.40063492S595.37269841 779.17460317 510.98412698 779.17460317z m0-589.2063492c-150.68444444 0-273.26984127 122.58539683-273.26984127 273.26984127s122.58539683 273.26984127 273.26984127 273.26984127 273.26984127-122.58539683 273.26984127-273.26984127-122.58539683-273.26984127-273.26984127-273.26984127z" p-id="1691"></path><path d="M510.98412698 784.25396825c-85.74984127 0-166.35936508-33.39174603-226.99682539-94.01904762S189.96825397 548.98793651 189.96825397 463.23809524s33.39174603-166.35936508 94.01904762-226.9968254S425.23428571 142.22222222 510.98412698 142.22222222s166.35936508 33.39174603 226.9968254 94.01904762S832 377.48825397 832 463.23809524s-33.39174603 166.35936508-94.01904762 226.99682539S596.73396825 784.25396825 510.98412698 784.25396825z m0-631.87301587c-83.03746032 0-161.09714286 32.3352381-219.80444444 91.05269841S200.12698413 380.21079365 200.12698413 463.23809524s32.3352381 161.09714286 91.05269841 219.81460317S427.9568254 774.0952381 510.98412698 774.0952381s161.09714286-32.3352381 219.81460318-91.04253969S821.84126984 546.27555556 821.84126984 463.23809524s-32.3352381-161.09714286-91.04253968-219.80444445S594.0215873 152.38095238 510.98412698 152.38095238z m0 589.20634921c-153.47809524 0-278.34920635-124.87111111-278.34920635-278.34920635s124.87111111-278.34920635 278.34920635-278.34920635 278.34920635 124.87111111 278.34920635 278.34920635-124.87111111 278.34920635-278.34920635 278.34920635z m0-546.53968254c-147.88063492 0-268.19047619 120.30984127-268.19047619 268.19047619s120.30984127 268.19047619 268.19047619 268.19047619 268.19047619-120.30984127 268.19047619-268.19047619-120.30984127-268.19047619-268.19047619-268.19047619z" p-id="1692"></path><path d="M393.14285714 884.82539683m53.84126984 0l102.60317461 0q53.84126984 0 53.84126984 53.84126984l0 0q0 53.84126984-53.84126984 53.84126984l-102.60317461 0q-53.84126984 0-53.84126984-53.84126984l0 0q0-53.84126984 53.84126984-53.84126984Z" p-id="1693"></path><path d="M549.58730159 997.58730159H446.98412698c-32.48761905 0-58.92063492-26.43301587-58.92063492-58.92063492s26.43301587-58.92063492 58.92063492-58.92063492h102.60317461c32.48761905 0 58.92063492 26.43301587 58.92063492 58.92063492s-26.43301587 58.92063492-58.92063492 58.92063492zM446.98412698 889.9047619c-26.89015873 0-48.76190476 21.87174603-48.76190476 48.76190477s21.87174603 48.76190476 48.76190476 48.76190476h102.60317461c26.89015873 0 48.76190476-21.87174603 48.76190476-48.76190476s-21.87174603-48.76190476-48.76190476-48.76190477H446.98412698z" p-id="1694"></path></svg>