<?xml version="1.0" standalone="no"?><!DOCTYPE svg PUBLIC "-//W3C//DTD SVG 1.1//EN" "http://www.w3.org/Graphics/SVG/1.1/DTD/svg11.dtd"><svg t="1730217239191" class="icon" viewBox="0 0 1024 1024" version="1.1" xmlns="http://www.w3.org/2000/svg" p-id="1523" xmlns:xlink="http://www.w3.org/1999/xlink" width="32" height="32"><path d="M500.480427 807.850667a128.341333 128.341333 0 0 0 121.514666-88.533334 7.253333 7.253333 0 0 0-3.84-8.874666 7.338667 7.338667 0 0 0-9.344 2.986666c-0.170667 0.298667-19.712 31.829333-95.744 42.112a249.173333 249.173333 0 0 1-32.938666 2.304c-53.290667 0-77.013333-20.096-77.226667-20.266666a7.296 7.296 0 0 0-11.093333 9.301333 128.682667 128.682667 0 0 0 108.714666 61.013333zM909.39776 336.64c-0.682667 0-1.28 0.128-1.92 0.128C862.848427 143.914667 692.651093 0 488.53376 0 278.827093 0 104.704427 151.808 66.13376 352.682667A80.725333 80.725333 0 0 0 0.000427 432.298667v159.658666c0 44.757333 35.882667 81.066667 80.213333 81.066667 24.96 0 47.018667-11.818667 61.696-29.952a372.650667 372.650667 0 0 0 198.997333 209.28 42.410667 42.410667 0 0 1 4.053334-6.528c1.408-1.834667 3.029333-3.370667 4.394666-3.370667 1.450667 0 2.773333 0.512 3.882667 1.322667-21.12-15.744-97.493333-96.64-114.048-209.578667-7.253333-49.706667 29.952-98.474667 73.301333-106.538666 69.632-12.970667 138.837333-27.733333 208.469334-40.448 44.245333-8.106667 74.453333-32.341333 92.970666-72.746667 4.309333-9.429333 10.581333-28.586667 13.44-56.106667a8.618667 8.618667 0 0 1 8.405334-7.253333c2.901333 0 5.333333 1.493333 6.954666 3.584l1.92-1.194667c27.434667 39.850667 81.834667 128 89.6 221.013334 9.002667 106.325333 4.010667 179.114667-77.354666 253.610666a6.656 6.656 0 0 0-2.133334 4.864c0 2.304 1.194667 4.266667 2.986667 5.461334 0.64 0.256 1.322667 0.64 2.005333 0.896 0.554667 0.128 1.066667 0.298667 1.621334 0.298666 0.554667 0 1.024-0.170667 1.536-0.298666 1.152-0.597333 2.218667-1.28 3.370666-1.92a372.138667 372.138667 0 0 0 174.592-212.096c11.818667 17.536 30.293333 30.165333 51.797334 34.56-34.474667 156.672-174.208 254.72-347.306667 269.653333a70.826667 70.826667 0 0 0-65.962667-44.032c-39.168 0-70.912 31.018667-70.912 69.248 0 38.272 31.744 69.248 70.912 69.248 31.573333 0 58.026667-20.309333 67.242667-48.170667 200.405333-16.298667 361.045333-135.424 394.581333-320.512a81.749333 81.749333 0 0 0 50.432-75.349333V418.389333a82.048 82.048 0 0 0-82.346666-81.749333zM835.41376 383.018667c-52.266667-141.568-187.733333-242.730667-347.050667-242.730667-158.677333 0-293.632 100.266667-346.368 240.981333-2.645333-3.2-5.717333-5.973333-8.746666-8.746666 29.866667-171.434667 177.408-301.738667 355.285333-301.738667 177.066667 0 324.096 129.024 354.986667 299.264a80.426667 80.426667 0 0 0-8.106667 12.970667z" p-id="1524"></path></svg>